<?xml version="1.0" encoding="UTF-8" standalone="no"?>
<!-- Created with Inkscape (http://www.inkscape.org/) -->

<svg
   version="1.1"
   id="svg293"
   xml:space="preserve"
   width="1066.6667"
   height="1066.6667"
   viewBox="0 0 1066.6667 1066.6667"
   sodipodi:docname="color-skull-pdv.svg"
   inkscape:version="1.1.2 (b8e25be833, 2022-02-05)"
   xmlns:inkscape="http://www.inkscape.org/namespaces/inkscape"
   xmlns:sodipodi="http://sodipodi.sourceforge.net/DTD/sodipodi-0.dtd"
   xmlns="http://www.w3.org/2000/svg"
   xmlns:svg="http://www.w3.org/2000/svg"><defs
     id="defs297"><clipPath
       clipPathUnits="userSpaceOnUse"
       id="clipPath307"><path
         d="M 0,800 H 800 V 0 H 0 Z"
         id="path305" /></clipPath></defs><sodipodi:namedview
     id="namedview295"
     pagecolor="#ffffff"
     bordercolor="#666666"
     borderopacity="1.0"
     inkscape:pageshadow="2"
     inkscape:pageopacity="0.0"
     inkscape:pagecheckerboard="0"
     showgrid="false"
     inkscape:zoom="0.77906244"
     inkscape:cx="533.33337"
     inkscape:cy="533.33337"
     inkscape:window-width="1920"
     inkscape:window-height="1018"
     inkscape:window-x="-8"
     inkscape:window-y="-8"
     inkscape:window-maximized="1"
     inkscape:current-layer="g299" /><g
     id="g299"
     inkscape:groupmode="layer"
     inkscape:label="color-skull-pdv"
     transform="matrix(1.3333333,0,0,-1.3333333,0,1066.6667)"><g
       id="g301"><g
         id="g303"
         clip-path="url(#clipPath307)"><path
           d="m 757.422,559.825 -32.498,-66.813 48.997,-10.088 c 8.463,14.992 10.354,33.509 3.569,50.805 -4.253,10.813 -11.338,19.681 -20.068,26.096"
           style="fill:#be6e00;fill-opacity:1;fill-rule:nonzero;stroke:none"
           id="path309" /><path
           d="m 769.994,298.181 c -3.654,4.97 -8.103,9.407 -13.258,13.094 l -23.873,-16.439 z"
           style="fill:#708461;fill-opacity:1;fill-rule:nonzero;stroke:none"
           id="path311" /><path
           d="m 725.534,222.467 27.119,-10.441 c 10.907,6.487 19.825,16.483 24.829,29.184 1.92,4.894 3.141,9.89 3.72,14.877 z"
           style="fill:#2a685d;fill-opacity:1;fill-rule:nonzero;stroke:none"
           id="path313" /><path
           d="m 725.534,222.467 55.668,33.62 c 1.754,15.106 -2.422,30.141 -11.208,42.094 l -37.131,-3.345 z"
           style="fill:#4a8a69;fill-opacity:1;fill-rule:nonzero;stroke:none"
           id="path315" /><path
           d="m 756.736,311.275 c -3.91,2.798 -8.222,5.166 -12.9,7.006 -2.627,1.033 -5.281,1.859 -7.946,2.492 l -3.027,-25.937 z"
           style="fill:#98ae59;fill-opacity:1;fill-rule:nonzero;stroke:none"
           id="path317" /><path
           d="m 725.061,203.675 c 9.788,0.495 19.269,3.401 27.592,8.351 l -27.119,10.441 z"
           style="fill:#0a6358;fill-opacity:1;fill-rule:nonzero;stroke:none"
           id="path319" /><path
           d="m 734.938,454.099 c 2.99,0.658 5.968,1.555 8.914,2.714 13.252,5.212 23.587,14.628 30.069,26.111 l -48.997,10.088 z"
           style="fill:#bca029;fill-opacity:1;fill-rule:nonzero;stroke:none"
           id="path321" /><path
           d="m 735.89,320.773 c -7,1.664 -14.077,1.977 -20.95,1.099 l 17.923,-27.036 z"
           style="fill:#a7cb62;fill-opacity:1;fill-rule:nonzero;stroke:none"
           id="path323" /><path
           d="m 757.422,559.825 c -9.358,6.874 -20.606,10.929 -32.291,11.537 l -35.078,-9.221 c -8.475,-5.445 -15.164,-12.878 -19.857,-21.424 l 54.728,-47.705 z"
           style="fill:#cd6f00;fill-opacity:1;fill-rule:nonzero;stroke:none"
           id="path325" /><path
           d="m 723.575,571.425 c -7.743,0.205 -15.67,-1.08 -23.354,-4.085 -3.629,-1.428 -7.022,-3.177 -10.168,-5.199 l 35.078,9.221 c -0.518,0.027 -1.036,0.049 -1.556,0.063"
           style="fill:#cb4500;fill-opacity:1;fill-rule:nonzero;stroke:none"
           id="path327" /><path
           d="m 681.717,219.451 c 5.211,-4.894 11.397,-8.907 18.489,-11.697 8.161,-3.21 16.616,-4.497 24.855,-4.079 l 0.473,18.792 z"
           style="fill:#238966;fill-opacity:1;fill-rule:nonzero;stroke:none"
           id="path329" /><path
           d="m 709.565,454.158 c 8.213,-1.82 16.84,-1.934 25.373,-0.059 l -10.014,38.913 z"
           style="fill:#c1c33c;fill-opacity:1;fill-rule:nonzero;stroke:none"
           id="path331" /><path
           d="m 625.378,495.454 25.697,-57.267 48.543,19.082 c 3.22,-1.317 6.549,-2.358 9.947,-3.111 l 15.359,38.854 z"
           style="fill:#d2c62f;fill-opacity:1;fill-rule:nonzero;stroke:none"
           id="path333" /><path
           d="m 654.997,289.645 -3.04,-45.041 16.3,-6.421 c 3.253,-7.006 7.775,-13.394 13.46,-18.732 l 43.817,3.016 z"
           style="fill:#52ae73;fill-opacity:1;fill-rule:nonzero;stroke:none"
           id="path335" /><path
           d="m 654.997,289.645 70.537,-67.178 7.329,72.369 z"
           style="fill:#5aaa73;fill-opacity:1;fill-rule:nonzero;stroke:none"
           id="path337" /><path
           d="m 732.863,294.836 -17.923,27.036 c -5.274,-0.674 -10.428,-2.044 -15.336,-4.047 L 666.328,330.9 654.997,289.645 Z"
           style="fill:#86c077;fill-opacity:1;fill-rule:nonzero;stroke:none"
           id="path339" /><path
           d="m 724.924,493.012 -54.728,47.705 c -0.684,-1.246 -1.327,-2.516 -1.925,-3.806 l -26.464,-10.406 -16.429,-31.051 z"
           style="fill:#d89801;fill-opacity:1;fill-rule:nonzero;stroke:none"
           id="path341" /><path
           d="m 624.161,494.869 c 0.062,-0.695 0.118,-1.391 0.172,-2.089 l 1.045,2.674 z"
           style="fill:#e8e237;fill-opacity:1;fill-rule:nonzero;stroke:none"
           id="path343" /><path
           d="m 536.843,451.816 29.787,-81.782 c 21.433,31.313 34.002,69.177 34.002,109.949 0,1.186 -0.015,2.369 -0.035,3.549 l -63.284,-30.446 c -0.152,-0.426 -0.308,-0.849 -0.47,-1.27"
           style="fill:#e8e237;fill-opacity:1;fill-rule:nonzero;stroke:none"
           id="path345" /><path
           d="m 666.328,330.9 -75.588,29.703 -1.904,-0.341 c -2.461,-3.764 -5.01,-7.461 -7.661,-11.074 l 73.822,-59.543 z"
           style="fill:#b4e075;fill-opacity:1;fill-rule:nonzero;stroke:none"
           id="path347" /><path
           d="m 624.333,492.78 c 0.326,-4.223 0.513,-8.485 0.513,-12.797 0,-19.181 -3.358,-37.504 -8.022,-55.259 l 34.251,13.463 -25.697,57.267 z"
           style="fill:#d1df42;fill-opacity:1;fill-rule:nonzero;stroke:none"
           id="path349" /><path
           d="m 589.393,361.133 0.011,-0.005 c 10e-4,0.001 0.002,0.003 0.003,0.005 z"
           style="fill:#d1df42;fill-opacity:1;fill-rule:nonzero;stroke:none"
           id="path351" /><path
           d="m 589.404,361.128 c -0.188,-0.29 -0.38,-0.577 -0.568,-0.866 l 1.904,0.341 z"
           style="fill:#d1df42;fill-opacity:1;fill-rule:nonzero;stroke:none"
           id="path353" /><path
           d="m 565.674,591.34 c -11.906,17.063 -26.472,32.137 -43.094,44.62 l 2.642,-87.984 z"
           style="fill:#e94d00;fill-opacity:1;fill-rule:nonzero;stroke:none"
           id="path355" /><path
           d="m 630.755,252.959 21.202,-8.355 3.04,45.041 z"
           style="fill:#60b677;fill-opacity:1;fill-rule:nonzero;stroke:none"
           id="path357" /><path
           d="m 554.977,310.016 c -0.295,-0.864 -0.58,-1.745 -0.848,-2.644 -1.815,-6.054 -3.857,-14.474 -5.76,-21.952 l 82.386,-32.461 24.242,36.686 z"
           style="fill:#8ad081;fill-opacity:1;fill-rule:nonzero;stroke:none"
           id="path359" /><path
           d="m 528.038,303.583 c 1.061,3.929 2.123,7.705 3.195,11.269 l -9.676,1.969 z"
           style="fill:#8ad081;fill-opacity:1;fill-rule:nonzero;stroke:none"
           id="path361" /><path
           d="m 587.484,550.448 c -5.652,14.558 -13.003,28.269 -21.81,40.892 l -40.452,-43.364 z"
           style="fill:#e66200;fill-opacity:1;fill-rule:nonzero;stroke:none"
           id="path363" /><path
           d="m 598.392,509.605 c -2.164,14.174 -5.86,27.845 -10.908,40.843 l -62.262,-2.472 z"
           style="fill:#e99500;fill-opacity:1;fill-rule:nonzero;stroke:none"
           id="path365" /><path
           d="m 641.807,526.505 -20.899,-8.218 c 1.304,-7.3 2.424,-14.659 3.134,-22.132 l 1.336,-0.701 z"
           style="fill:#e99500;fill-opacity:1;fill-rule:nonzero;stroke:none"
           id="path367" /><path
           d="m 531.233,314.852 c 1.496,4.97 3.007,9.525 4.552,13.492 l -14.228,-11.523 z"
           style="fill:#b5e384;fill-opacity:1;fill-rule:nonzero;stroke:none"
           id="path369" /><path
           d="m 581.175,349.188 c -6.307,-8.595 -13.171,-16.729 -20.691,-24.244 3.392,3.385 -1.858,-4.238 -5.507,-14.928 l 100.02,-20.371 z"
           style="fill:#b5e384;fill-opacity:1;fill-rule:nonzero;stroke:none"
           id="path371" /><path
           d="m 530.509,503.391 c 6.3,-8.993 10,-19.936 10,-31.739 0,-6.51 -1.129,-12.759 -3.196,-18.566 l 63.284,30.446 c -0.159,8.847 -0.904,17.552 -2.205,26.073 l -73.17,38.371 z"
           style="fill:#f2b407;fill-opacity:1;fill-rule:nonzero;stroke:none"
           id="path373" /><path
           d="m 624.042,496.155 c 0.041,-0.428 0.082,-0.857 0.119,-1.286 l 1.217,0.585 z"
           style="fill:#f2b407;fill-opacity:1;fill-rule:nonzero;stroke:none"
           id="path375" /><path
           d="m 521.437,429.83 -31.026,-47.052 69.464,-22.018 c 2.34,3.022 4.592,6.115 6.755,9.274 l -29.787,81.782 c -3.281,-8.546 -8.618,-16.079 -15.406,-21.986"
           style="fill:#f0f04b;fill-opacity:1;fill-rule:nonzero;stroke:none"
           id="path377" /><path
           d="m 443.081,208.42 42.27,-6.863 c 2.33,0.558 4.289,1.16 5.812,1.803 15.983,6.762 26.295,61.021 36.875,100.223 l -6.481,13.238 z"
           style="fill:#99d582;fill-opacity:1;fill-rule:nonzero;stroke:none"
           id="path379" /><path
           d="m 444.77,196.95 c 16.963,0.907 31.573,2.443 40.581,4.607 l -42.27,6.863 z"
           style="fill:#79af72;fill-opacity:1;fill-rule:nonzero;stroke:none"
           id="path381" /><path
           d="m 407.129,674.984 c -0.554,0.004 -1.108,0.01 -1.662,0.01 -23.323,0 -45.689,-4.098 -66.42,-11.609 l 26.779,-2.122 z"
           style="fill:#f05100;fill-opacity:1;fill-rule:nonzero;stroke:none"
           id="path383" /><path
           d="m 433.31,256.666 9.771,-48.246 78.476,108.401 z"
           style="fill:#c5eb78;fill-opacity:1;fill-rule:nonzero;stroke:none"
           id="path385" /><path
           d="m 530.509,503.391 -5.287,44.585 -13.914,-27.501 c 7.659,-4.124 14.237,-9.997 19.201,-17.084"
           style="fill:#fdbb08;fill-opacity:1;fill-rule:nonzero;stroke:none"
           id="path387" /><path
           d="m 521.557,316.821 14.228,11.523 c 2.434,6.248 4.949,11.04 7.611,13.703 5.878,5.876 11.382,12.128 16.479,18.713 l -69.464,22.018 z"
           style="fill:#dff36c;fill-opacity:1;fill-rule:nonzero;stroke:none"
           id="path389" /><path
           d="m 510.247,644.504 c -15.481,9.868 -32.446,17.614 -50.481,22.829 l 16.293,-133.709 z"
           style="fill:#f94d00;fill-opacity:1;fill-rule:nonzero;stroke:none"
           id="path391" /><path
           d="m 525.222,547.976 -2.642,87.984 c -3.995,3 -8.109,5.851 -12.333,8.544 l -34.188,-110.88 z"
           style="fill:#fe6800;fill-opacity:1;fill-rule:nonzero;stroke:none"
           id="path393" /><path
           d="m 485.095,527.066 c 9.48,0 18.406,-2.387 26.213,-6.591 l 13.914,27.501 -49.163,-14.352 1.14,-7.121 c 2.58,0.369 5.215,0.563 7.896,0.563"
           style="fill:#ffa500;fill-opacity:1;fill-rule:nonzero;stroke:none"
           id="path395" /><path
           d="m 490.411,382.778 31.026,47.052 c -8.866,-7.714 -20.203,-12.654 -32.659,-13.475 z"
           style="fill:#fce633;fill-opacity:1;fill-rule:nonzero;stroke:none"
           id="path397" /><path
           d="m 476.059,533.624 -16.293,133.709 c -5.493,1.589 -11.084,2.942 -16.764,4.05 L 371.627,567.519 Z"
           style="fill:#ff6500;fill-opacity:1;fill-rule:nonzero;stroke:none"
           id="path399" /><path
           d="m 521.557,316.821 -31.146,65.957 -94.05,-30.84 z"
           style="fill:#f2f859;fill-opacity:1;fill-rule:nonzero;stroke:none"
           id="path401" /><path
           d="m 433.31,256.666 88.247,60.155 -125.196,35.117 z"
           style="fill:#e7f570;fill-opacity:1;fill-rule:nonzero;stroke:none"
           id="path403" /><path
           d="m 371.627,567.519 71.375,103.864 c -11.623,2.265 -23.614,3.499 -35.873,3.601 l -41.303,-13.721 z"
           style="fill:#ff5a00;fill-opacity:1;fill-rule:nonzero;stroke:none"
           id="path405" /><path
           d="m 443.081,208.42 -9.167,-11.954 c 3.701,0.134 7.329,0.296 10.856,0.484 z"
           style="fill:#a2ba59;fill-opacity:1;fill-rule:nonzero;stroke:none"
           id="path407" /><path
           d="m 429.68,471.652 c 0,3.09 0.258,6.119 0.745,9.072 l -52.35,9.399 c 2.046,-5.779 3.163,-11.995 3.163,-18.471 0,-9.472 -2.384,-18.392 -6.583,-26.195 l 21.706,-93.519 56.446,74.684 c -14,10.065 -23.127,26.491 -23.127,45.03"
           style="fill:#ffe100;fill-opacity:1;fill-rule:nonzero;stroke:none"
           id="path409" /><path
           d="m 485.095,416.23 c -12.044,0 -23.194,3.855 -32.288,10.392 l -56.446,-74.684 94.05,30.84 -1.633,33.577 c -1.217,-0.079 -2.445,-0.125 -3.683,-0.125"
           style="fill:#fff328;fill-opacity:1;fill-rule:nonzero;stroke:none"
           id="path411" /><path
           d="m 378.075,490.123 52.35,-9.399 c 3.912,23.712 22.898,42.367 46.774,45.779 l -1.14,7.121 -100.896,-36.739 c 1.115,-2.175 2.087,-4.434 2.912,-6.762"
           style="fill:#ffb500;fill-opacity:1;fill-rule:nonzero;stroke:none"
           id="path413" /><path
           d="m 375.163,496.885 100.896,36.739 -104.432,33.895 -6.076,-57.259 c 3.829,-3.939 7.081,-8.442 9.612,-13.375"
           style="fill:#ff9b00;fill-opacity:1;fill-rule:nonzero;stroke:none"
           id="path415" /><path
           d="m 396.361,351.938 -9.465,-88.553 46.414,-6.719 z"
           style="fill:#e9f352;fill-opacity:1;fill-rule:nonzero;stroke:none"
           id="path417" /><path
           d="m 370.711,197.122 -0.004,-0.39 c 19.977,-0.922 42.701,-1.011 63.207,-0.266 l 9.167,11.954 z"
           style="fill:#b7cf4e;fill-opacity:1;fill-rule:nonzero;stroke:none"
           id="path419" /><path
           d="m 386.896,263.385 56.185,-54.965 -9.771,48.246 z"
           style="fill:#caea5b;fill-opacity:1;fill-rule:nonzero;stroke:none"
           id="path421" /><path
           d="m 370.711,197.122 72.37,11.298 -56.185,54.965 z"
           style="fill:#c8e24f;fill-opacity:1;fill-rule:nonzero;stroke:none"
           id="path423" /><path
           d="m 374.655,445.457 c -9.356,-17.39 -27.728,-29.227 -48.839,-29.227 -3.359,0 -6.648,0.301 -9.843,0.874 l -22.822,-36.158 103.21,-29.008 z"
           style="fill:#ffdd00;fill-opacity:1;fill-rule:nonzero;stroke:none"
           id="path425" /><path
           d="m 293.151,380.946 -15.447,-59.695 c 4.962,-14.916 9.675,-35.099 14.694,-54.584 l 94.498,-3.282 z"
           style="fill:#fae02b;fill-opacity:1;fill-rule:nonzero;stroke:none"
           id="path427" /><path
           d="m 293.151,380.946 93.745,-117.561 9.465,88.553 z"
           style="fill:#ffee2d;fill-opacity:1;fill-rule:nonzero;stroke:none"
           id="path429" /><path
           d="M 365.826,661.263 278.494,556.22 371.627,567.519 Z"
           style="fill:#ff6800;fill-opacity:1;fill-rule:nonzero;stroke:none"
           id="path431" /><path
           d="m 386.896,263.385 -94.498,3.282 c 1.927,-7.477 3.899,-14.849 5.948,-21.783 l 72.365,-47.762 z"
           style="fill:#dddf3c;fill-opacity:1;fill-rule:nonzero;stroke:none"
           id="path433" /><path
           d="m 270.467,469.01 -34.112,-8.671 56.796,-79.393 22.822,36.158 c -25.052,4.501 -44.282,25.869 -45.506,51.906"
           style="fill:#ffba00;fill-opacity:1;fill-rule:nonzero;stroke:none"
           id="path435" /><path
           d="m 365.826,661.263 -26.779,2.122 c -25.558,-9.26 -48.63,-23.708 -67.942,-42.075 l 7.389,-65.09 z"
           style="fill:#fd5c00;fill-opacity:1;fill-rule:nonzero;stroke:none"
           id="path437" /><path
           d="m 370.16,196.757 c 0.182,-0.009 0.365,-0.017 0.547,-0.025 l 0.004,0.39 z"
           style="fill:#c1b93c;fill-opacity:1;fill-rule:nonzero;stroke:none"
           id="path439" /><path
           d="m 354.1,197.748 c 5.057,-0.396 10.447,-0.727 16.06,-0.991 l 0.551,0.365 z"
           style="fill:#ccba29;fill-opacity:1;fill-rule:nonzero;stroke:none"
           id="path441" /><path
           d="m 298.346,244.884 c 6.198,-20.982 13.1,-37.937 21.579,-41.524 5.942,-2.509 18.449,-4.381 34.175,-5.612 l 16.611,-0.626 z"
           style="fill:#ddc928;fill-opacity:1;fill-rule:nonzero;stroke:none"
           id="path443" /><path
           d="m 325.816,527.066 c 15.578,0 29.662,-6.444 39.735,-16.806 l 6.076,57.259 -93.133,-11.299 39.792,-29.665 c 2.463,0.335 4.977,0.511 7.53,0.511"
           style="fill:#ff8500;fill-opacity:1;fill-rule:nonzero;stroke:none"
           id="path445" /><path
           d="m 270.402,471.652 c 0,28.03 20.858,51.223 47.884,54.903 l -39.792,29.665 -42.139,-95.881 34.112,8.671 c -0.042,0.876 -0.065,1.757 -0.065,2.642"
           style="fill:#ff9400;fill-opacity:1;fill-rule:nonzero;stroke:none"
           id="path447" /><path
           d="M 271.105,621.31 C 259.553,610.321 249.347,597.931 240.758,584.411 L 278.494,556.22 Z"
           style="fill:#fa4f00;fill-opacity:1;fill-rule:nonzero;stroke:none"
           id="path449" /><path
           d="m 240.758,584.411 c -5.651,-8.892 -10.601,-18.273 -14.773,-28.065 l 52.509,-0.126 z"
           style="fill:#ff4e00;fill-opacity:1;fill-rule:nonzero;stroke:none"
           id="path451" /><path
           d="m 262.365,285.273 c -1.91,7.53 -3.929,16 -5.752,22.099 -3.607,12.032 -10.013,21.216 -6.362,17.572 -10.917,10.91 -20.357,23.156 -28.769,36.189 l -19.517,-7.68 51.65,-71.62 z"
           style="fill:#ffb900;fill-opacity:1;fill-rule:nonzero;stroke:none"
           id="path453" /><path
           d="m 237.212,381.253 c 8.424,-14.343 18.631,-27.514 30.325,-39.206 3.598,-3.598 6.936,-11.08 10.167,-20.796 l 15.447,59.695 z"
           style="fill:#ffb900;fill-opacity:1;fill-rule:nonzero;stroke:none"
           id="path455" /><path
           d="m 236.355,460.339 -19.879,-28.652 c 4.557,-17.932 11.596,-34.873 20.736,-50.434 l 55.939,-0.307 z"
           style="fill:#ffab00;fill-opacity:1;fill-rule:nonzero;stroke:none"
           id="path457" /><path
           d="m 190.018,518.134 -8.038,3.157 7.203,-8.072 c 0.265,1.641 0.545,3.28 0.835,4.915"
           style="fill:#ff7700;fill-opacity:1;fill-rule:nonzero;stroke:none"
           id="path459" /><path
           d="m 278.494,556.22 -52.509,0.126 c -8.861,-20.802 -14.212,-43.457 -15.308,-67.222 l 25.678,-28.785 z"
           style="fill:#ff7700;fill-opacity:1;fill-rule:nonzero;stroke:none"
           id="path461" /><path
           d="m 222.901,269.756 30.714,12.077 -51.65,71.62 -37.425,-14.725 -25.898,-64.656 z"
           style="fill:#ff9900;fill-opacity:1;fill-rule:nonzero;stroke:none"
           id="path463" /><path
           d="m 172.756,250.038 50.145,19.718 -84.259,4.316 z"
           style="fill:#eaa400;fill-opacity:1;fill-rule:nonzero;stroke:none"
           id="path465" /><path
           d="m 211.71,457.78 c 1.005,-8.892 2.608,-17.604 4.766,-26.093 l 19.879,28.652 z"
           style="fill:#ff8800;fill-opacity:1;fill-rule:nonzero;stroke:none"
           id="path467" /><path
           d="m 153.034,440.966 41.069,-16.096 c -2.593,9.975 -4.759,20.093 -6.159,30.443 l -39.837,-4.135 z"
           style="fill:#ff8800;fill-opacity:1;fill-rule:nonzero;stroke:none"
           id="path469" /><path
           d="m 187.944,455.313 c -1.091,8.068 -1.717,16.278 -1.717,24.67 0,11.361 1.193,22.376 2.956,33.236 l -7.203,8.072 -31.956,12.559 -1.917,-82.672 z"
           style="fill:#ff7400;fill-opacity:1;fill-rule:nonzero;stroke:none"
           id="path471" /><path
           d="m 210.677,489.124 c -0.14,-3.03 -0.214,-6.077 -0.214,-9.141 0,-7.507 0.424,-14.916 1.247,-22.203 l 24.645,2.559 z"
           style="fill:#ff7400;fill-opacity:1;fill-rule:nonzero;stroke:none"
           id="path473" /><path
           d="m 140.521,234.084 c 0.744,1.34 1.44,2.706 2.083,4.099 l 30.152,11.855 -34.114,24.034 z"
           style="fill:#df8100;fill-opacity:1;fill-rule:nonzero;stroke:none"
           id="path475" /><path
           d="m 111.368,457.24 c 0.025,0.009 0.048,0.019 0.071,0.029 l 0.178,-0.07 36.49,-6.021 1.917,82.672 -7.398,2.907 c -0.699,1.516 -1.462,3.005 -2.28,4.463 l -53.31,-79.965 z"
           style="fill:#ff6200;fill-opacity:1;fill-rule:nonzero;stroke:none"
           id="path477" /><path
           d="m 141.119,445.636 11.915,-4.67 -4.927,10.212 z"
           style="fill:#ff7200;fill-opacity:1;fill-rule:nonzero;stroke:none"
           id="path479" /><path
           d="m 164.54,338.728 -48.941,-19.257 23.043,-45.399 z"
           style="fill:#ff7400;fill-opacity:1;fill-rule:nonzero;stroke:none"
           id="path481" /><path
           d="m 138.642,274.072 -23.043,45.399 -4.181,-1.646 c -10.638,4.355 -22.565,5.738 -34.316,3.404 l -0.143,-64.257 z"
           style="fill:#fc6200;fill-opacity:1;fill-rule:nonzero;stroke:none"
           id="path483" /><path
           d="M 76.959,256.972 115.7,210.02 c 10.839,5.485 19.236,13.99 24.821,24.064 l -1.879,39.988 z"
           style="fill:#e56700;fill-opacity:1;fill-rule:nonzero;stroke:none"
           id="path485" /><path
           d="m 111.617,457.199 29.502,-11.563 6.988,5.542 z"
           style="fill:#ff6800;fill-opacity:1;fill-rule:nonzero;stroke:none"
           id="path487" /><path
           d="m 85.777,452.715 c 8.844,-0.378 17.585,1.253 25.591,4.525 l -24.332,4.015 z"
           style="fill:#ff6800;fill-opacity:1;fill-rule:nonzero;stroke:none"
           id="path489" /><path
           d="m 140.346,541.22 c -6.431,11.456 -16.505,20.945 -29.67,26.12 -4.215,1.659 -8.53,2.787 -12.85,3.434 L 87.036,461.255 Z"
           style="fill:#ff4d00;fill-opacity:1;fill-rule:nonzero;stroke:none"
           id="path491" /><path
           d="m 67.748,207.443 c 13.367,-5.038 28.586,-5.322 42.906,0.311 1.737,0.683 3.418,1.441 5.046,2.266 l -38.741,46.952 z"
           style="fill:#d45200;fill-opacity:1;fill-rule:nonzero;stroke:none"
           id="path493" /><path
           d="m 36.868,233.962 c 6.988,-12.515 18.084,-21.695 30.88,-26.519 l 9.211,49.529 z"
           style="fill:#d24000;fill-opacity:1;fill-rule:nonzero;stroke:none"
           id="path495" /><path
           d="M 45.133,303.315 C 34.824,292.158 29.089,277.343 29.314,262.043 l 47.645,-5.071 z"
           style="fill:#ec4600;fill-opacity:1;fill-rule:nonzero;stroke:none"
           id="path497" /><path
           d="m 77.102,321.229 c -3.376,-0.671 -6.737,-1.646 -10.049,-2.948 -8.629,-3.394 -16.022,-8.582 -21.92,-14.966 l 31.826,-46.343 z"
           style="fill:#fc5000;fill-opacity:1;fill-rule:nonzero;stroke:none"
           id="path499" /><path
           d="m 67.075,456.666 c 0.251,-0.099 0.502,-0.19 0.753,-0.285 l 19.208,4.874 -55.046,33.327 c 5.159,-16.716 17.579,-31.03 35.085,-37.916"
           style="fill:#f34c00;fill-opacity:1;fill-rule:nonzero;stroke:none"
           id="path501" /><path
           d="m 97.826,570.774 c -3.502,0.526 -7.006,0.736 -10.461,0.651 -23.17,-0.552 -44.893,-14.627 -53.9,-37.54 -5.133,-13.049 -5.32,-26.843 -1.475,-39.303 l 55.046,-33.327 z"
           style="fill:#f74100;fill-opacity:1;fill-rule:nonzero;stroke:none"
           id="path503" /><path
           d="m 67.828,456.381 c 5.901,-2.225 11.948,-3.409 17.949,-3.666 l 1.259,8.54 z"
           style="fill:#ff5e00;fill-opacity:1;fill-rule:nonzero;stroke:none"
           id="path505" /><path
           d="m 36.868,233.962 40.091,23.01 -47.645,5.071 c 0.103,-6.943 1.431,-13.987 4.122,-20.833 0.993,-2.526 2.144,-4.942 3.432,-7.248"
           style="fill:#d94500;fill-opacity:1;fill-rule:nonzero;stroke:none"
           id="path507" /></g></g></g></svg>
